<svg xmlns="http://www.w3.org/2000/svg" width="224" height="208" viewBox="0 0 224 208"><rect width="224" height="208" rx="14" fill="#e7edf1"/><ellipse cx="112" cy="187" rx="65" ry="9" fill="#c9d3db"/><polygon points="92.04,181.39 98.25,182.49 105.82,183.66" fill="#697781" stroke="#697781" stroke-width="0.4"/><polygon points="48.76,153.21 58.22,162.68 64.67,168.62" fill="#697781" stroke="#697781" stroke-width="0.4"/><polygon points="33.54,120.05 38.09,133.39 41.73,141.85" fill="#7a8a95" stroke="#7a8a95" stroke-width="0.4"/><polygon points="64.67,168.62 74.82,174.56 82.42,178.48" fill="#697781" stroke="#697781" stroke-width="0.4"/><polygon points="102.34,24.75 97.97,25.52 87.51,27.78" fill="#8799a5" stroke="#8799a5" stroke-width="0.4"/><polygon points="78.72,31.17 69.65,36.49 61.35,41.95" fill="#8c9eab" stroke="#8c9eab" stroke-width="0.4"/><polygon points="114.61,183.46 113.80,183.92 121.66,183.25" fill="#697781" stroke="#697781" stroke-width="0.4"/><polygon points="103.02,183.09 105.82,183.66 113.80,183.92" fill="#697781" stroke="#697781" stroke-width="0.4"/><polygon points="192.00,101.90 190.49,111.21 190.46,115.93" fill="#697781" stroke="#697781" stroke-width="0.4"/><polygon points="61.35,41.95 52.44,50.83 46.74,58.16" fill="#8d9fac" stroke="#8d9fac" stroke-width="0.4"/><polygon points="39.48,69.89 35.02,82.94 33.54,92.07" fill="#899ca8" stroke="#899ca8" stroke-width="0.4"/><polygon points="132.37,27.51 141.58,29.52 131.96,26.61" fill="#7d8e99" stroke="#7d8e99" stroke-width="0.4"/><polygon points="184.52,138.11 178.18,146.25 177.26,149.84" fill="#697781" stroke="#697781" stroke-width="0.4"/><polygon points="103.02,183.09 92.04,181.39 105.82,183.66" fill="#697781" stroke="#697781" stroke-width="0.4"/><polygon points="95.13,26.31 87.51,27.78 78.72,31.17" fill="#8a9ca9" stroke="#8a9ca9" stroke-width="0.4"/><polygon points="175.24,54.79 178.52,62.41 182.27,66.15" fill="#697781" stroke="#697781" stroke-width="0.4"/><polygon points="190.49,111.21 188.98,125.06 190.46,115.93" fill="#697781" stroke="#697781" stroke-width="0.4"/><polygon points="126.03,182.48 114.61,183.46 121.66,183.25" fill="#697781" stroke="#697781" stroke-width="0.4"/><polygon points="95.13,26.31 102.34,24.75 87.51,27.78" fill="#8799a5" stroke="#8799a5" stroke-width="0.4"/><polygon points="114.61,183.46 103.02,183.09 113.80,183.92" fill="#697781" stroke="#697781" stroke-width="0.4"/><polygon points="56.35,160.19 48.76,153.21 64.67,168.62" fill="#697781" stroke="#697781" stroke-width="0.4"/><polygon points="178.18,146.25 171.56,157.17 177.26,149.84" fill="#697781" stroke="#697781" stroke-width="0.4"/><polygon points="125.75,25.51 132.37,27.51 131.96,26.61" fill="#7d8e99" stroke="#7d8e99" stroke-width="0.4"/><polygon points="74.35,173.61 64.67,168.62 82.42,178.48" fill="#697781" stroke="#697781" stroke-width="0.4"/><polygon points="32.00,106.10 33.54,120.05 37.41,129.04" fill="#81929d" stroke="#81929d" stroke-width="0.4"/><polygon points="143.17,175.83 136.49,180.22 145.28,176.83" fill="#697781" stroke="#697781" stroke-width="0.4"/><polygon points="72.20,35.46 78.72,31.17 61.35,41.95" fill="#8c9eab" stroke="#8c9eab" stroke-width="0.4"/><polygon points="74.35,173.61 82.42,178.48 92.04,181.39" fill="#697781" stroke="#697781" stroke-width="0.4"/><polygon points="178.52,62.41 185.91,74.61 182.27,66.15" fill="#697781" stroke="#697781" stroke-width="0.4"/><polygon points="41.73,141.85 48.76,153.21 56.35,160.19" fill="#72818c" stroke="#72818c" stroke-width="0.4"/><polygon points="37.41,129.04 33.54,120.05 41.73,141.85" fill="#7a8a95" stroke="#7a8a95" stroke-width="0.4"/><polygon points="190.46,87.95 188.98,97.08 192.00,101.90" fill="#697781" stroke="#697781" stroke-width="0.4"/><polygon points="154.35,171.51 143.17,175.83 145.28,176.83" fill="#697781" stroke="#697781" stroke-width="0.4"/><polygon points="149.18,33.44 154.25,38.10 159.33,39.38" fill="#73828d" stroke="#73828d" stroke-width="0.4"/><polygon points="154.25,38.10 165.78,45.32 159.33,39.38" fill="#73828d" stroke="#73828d" stroke-width="0.4"/><polygon points="171.56,157.17 161.80,163.59 162.65,166.05" fill="#697781" stroke="#697781" stroke-width="0.4"/><polygon points="56.50,48.19 61.35,41.95 46.74,58.16" fill="#8d9fac" stroke="#8d9fac" stroke-width="0.4"/><polygon points="161.80,163.59 154.35,171.51 162.65,166.05" fill="#697781" stroke="#697781" stroke-width="0.4"/><polygon points="137.61,30.21 149.18,33.44 141.58,29.52" fill="#7b8c97" stroke="#7b8c97" stroke-width="0.4"/><polygon points="46.74,58.16 39.48,69.89 38.09,78.49" fill="#8d9fac" stroke="#8d9fac" stroke-width="0.4"/><polygon points="89.08,28.65 95.13,26.31 78.72,31.17" fill="#8a9ca9" stroke="#8a9ca9" stroke-width="0.4"/><polygon points="56.35,160.19 64.67,168.62 74.35,173.61" fill="#697781" stroke="#697781" stroke-width="0.4"/><polygon points="38.09,78.49 39.48,69.89 33.54,92.07" fill="#899ca8" stroke="#899ca8" stroke-width="0.4"/><polygon points="72.20,35.46 61.35,41.95 56.50,48.19" fill="#8ea1ae" stroke="#8ea1ae" stroke-width="0.4"/><polygon points="89.08,28.65 78.72,31.17 72.20,35.46" fill="#8c9fac" stroke="#8c9fac" stroke-width="0.4"/><polygon points="132.37,27.51 137.61,30.21 141.58,29.52" fill="#7b8c97" stroke="#7b8c97" stroke-width="0.4"/><polygon points="188.98,97.08 190.49,111.21 192.00,101.90" fill="#697781" stroke="#697781" stroke-width="0.4"/><polygon points="188.98,125.06 182.26,133.71 184.52,138.11" fill="#697781" stroke="#697781" stroke-width="0.4"/><polygon points="165.78,45.32 168.57,51.80 175.24,54.79" fill="#6a7882" stroke="#6a7882" stroke-width="0.4"/><polygon points="115.15,26.82 118.18,24.34 110.20,24.08" fill="#8697a3" stroke="#8697a3" stroke-width="0.4"/><polygon points="111.08,26.69 110.20,24.08 102.34,24.75" fill="#8799a5" stroke="#8799a5" stroke-width="0.4"/><polygon points="129.86,178.70 126.03,182.48 136.49,180.22" fill="#697781" stroke="#697781" stroke-width="0.4"/><polygon points="86.60,177.31 92.04,181.39 103.02,183.09" fill="#697781" stroke="#697781" stroke-width="0.4"/><polygon points="119.01,27.42 125.75,25.51 118.18,24.34" fill="#8496a1" stroke="#8496a1" stroke-width="0.4"/><polygon points="33.54,92.07 32.00,106.10 35.94,115.26" fill="#8698a4" stroke="#8698a4" stroke-width="0.4"/><polygon points="86.60,177.31 74.35,173.61 92.04,181.39" fill="#697781" stroke="#697781" stroke-width="0.4"/><polygon points="107.07,27.03 102.34,24.75 95.13,26.31" fill="#899ba7" stroke="#899ba7" stroke-width="0.4"/><polygon points="185.91,74.61 184.52,83.21 190.46,87.95" fill="#697781" stroke="#697781" stroke-width="0.4"/><polygon points="168.57,51.80 178.52,62.41 175.24,54.79" fill="#6a7882" stroke="#6a7882" stroke-width="0.4"/><polygon points="182.26,133.71 178.18,146.25 184.52,138.11" fill="#697781" stroke="#697781" stroke-width="0.4"/><polygon points="35.94,115.26 32.00,106.10 37.41,129.04" fill="#81929d" stroke="#81929d" stroke-width="0.4"/><polygon points="50.17,149.61 41.73,141.85 56.35,160.19" fill="#72818c" stroke="#72818c" stroke-width="0.4"/><polygon points="143.17,175.83 129.86,178.70 136.49,180.22" fill="#697781" stroke="#697781" stroke-width="0.4"/><polygon points="115.33,179.95 114.61,183.46 126.03,182.48" fill="#697781" stroke="#697781" stroke-width="0.4"/><polygon points="100.57,179.47 103.02,183.09 114.61,183.46" fill="#697781" stroke="#697781" stroke-width="0.4"/><polygon points="37.41,129.04 41.73,141.85 50.17,149.61" fill="#7a8a95" stroke="#7a8a95" stroke-width="0.4"/><polygon points="122.39,28.44 132.37,27.51 125.75,25.51" fill="#8394a0" stroke="#8394a0" stroke-width="0.4"/><polygon points="56.50,48.19 46.74,58.16 45.48,65.90" fill="#8fa2af" stroke="#8fa2af" stroke-width="0.4"/><polygon points="84.59,31.60 89.08,28.65 72.20,35.46" fill="#8c9fac" stroke="#8c9fac" stroke-width="0.4"/><polygon points="111.08,26.69 115.15,26.82 110.20,24.08" fill="#8697a3" stroke="#8697a3" stroke-width="0.4"/><polygon points="103.40,27.83 95.13,26.31 89.08,28.65" fill="#8b9da9" stroke="#8b9da9" stroke-width="0.4"/><polygon points="68.39,40.36 72.20,35.46 56.50,48.19" fill="#8ea1ae" stroke="#8ea1ae" stroke-width="0.4"/><polygon points="45.48,65.90 46.74,58.16 38.09,78.49" fill="#8d9fac" stroke="#8d9fac" stroke-width="0.4"/><polygon points="141.11,33.42 154.25,38.10 149.18,33.44" fill="#7b8b96" stroke="#7b8b96" stroke-width="0.4"/><polygon points="107.07,27.03 111.08,26.69 102.34,24.75" fill="#8799a5" stroke="#8799a5" stroke-width="0.4"/><polygon points="115.15,26.82 119.01,27.42 118.18,24.34" fill="#8496a1" stroke="#8496a1" stroke-width="0.4"/><polygon points="137.61,30.21 141.11,33.42 149.18,33.44" fill="#7b8b96" stroke="#7b8b96" stroke-width="0.4"/><polygon points="67.73,166.06 56.35,160.19 74.35,173.61" fill="#697781" stroke="#697781" stroke-width="0.4"/><polygon points="184.52,83.21 188.98,97.08 190.46,87.95" fill="#697781" stroke="#697781" stroke-width="0.4"/><polygon points="178.18,146.25 167.34,153.39 171.56,157.17" fill="#697781" stroke="#697781" stroke-width="0.4"/><polygon points="100.57,179.47 86.60,177.31 103.02,183.09" fill="#697781" stroke="#697781" stroke-width="0.4"/><polygon points="154.25,38.10 156.45,43.19 165.78,45.32" fill="#73828d" stroke="#73828d" stroke-width="0.4"/><polygon points="190.49,111.21 183.63,120.02 188.98,125.06" fill="#697781" stroke="#697781" stroke-width="0.4"/><polygon points="84.59,31.60 72.20,35.46 68.39,40.36" fill="#8ea1ae" stroke="#8ea1ae" stroke-width="0.4"/><polygon points="103.40,27.83 107.07,27.03 95.13,26.31" fill="#899ba7" stroke="#899ba7" stroke-width="0.4"/><polygon points="148.65,168.67 143.17,175.83 154.35,171.51" fill="#697781" stroke="#697781" stroke-width="0.4"/><polygon points="119.01,27.42 122.39,28.44 125.75,25.51" fill="#8394a0" stroke="#8394a0" stroke-width="0.4"/><polygon points="129.86,178.70 115.33,179.95 126.03,182.48" fill="#697781" stroke="#697781" stroke-width="0.4"/><polygon points="167.34,153.39 161.80,163.59 171.56,157.17" fill="#697781" stroke="#697781" stroke-width="0.4"/><polygon points="67.73,166.06 74.35,173.61 86.60,177.31" fill="#697781" stroke="#697781" stroke-width="0.4"/><polygon points="125.06,29.82 137.61,30.21 132.37,27.51" fill="#82939f" stroke="#82939f" stroke-width="0.4"/><polygon points="38.09,78.49 33.54,92.07 37.41,101.05" fill="#8b9daa" stroke="#8b9daa" stroke-width="0.4"/><polygon points="178.52,62.41 177.26,70.14 185.91,74.61" fill="#697781" stroke="#697781" stroke-width="0.4"/><polygon points="161.80,163.59 148.65,168.67 154.35,171.51" fill="#697781" stroke="#697781" stroke-width="0.4"/><polygon points="156.45,43.19 168.57,51.80 165.78,45.32" fill="#73828d" stroke="#73828d" stroke-width="0.4"/><polygon points="115.33,179.95 100.57,179.47 114.61,183.46" fill="#697781" stroke="#697781" stroke-width="0.4"/><polygon points="50.17,149.61 56.35,160.19 67.73,166.06" fill="#707f8a" stroke="#707f8a" stroke-width="0.4"/><polygon points="100.31,29.02 89.08,28.65 84.59,31.60" fill="#8c9fab" stroke="#8c9fab" stroke-width="0.4"/><polygon points="37.41,101.05 33.54,92.07 35.94,115.26" fill="#8698a4" stroke="#8698a4" stroke-width="0.4"/><polygon points="100.31,29.02 103.40,27.83 89.08,28.65" fill="#8b9da9" stroke="#8b9da9" stroke-width="0.4"/><polygon points="183.63,120.02 182.26,133.71 188.98,125.06" fill="#697781" stroke="#697781" stroke-width="0.4"/><polygon points="122.39,28.44 125.06,29.82 132.37,27.51" fill="#82939f" stroke="#82939f" stroke-width="0.4"/><polygon points="68.39,40.36 56.50,48.19 55.43,54.77" fill="#90a3b0" stroke="#90a3b0" stroke-width="0.4"/><polygon points="55.43,54.77 56.50,48.19 45.48,65.90" fill="#8fa2af" stroke="#8fa2af" stroke-width="0.4"/><polygon points="177.26,70.14 184.52,83.21 185.91,74.61" fill="#697781" stroke="#697781" stroke-width="0.4"/><polygon points="35.94,115.26 37.41,129.04 46.36,137.27" fill="#81929d" stroke="#81929d" stroke-width="0.4"/><polygon points="46.36,137.27 37.41,129.04 50.17,149.61" fill="#7a8a95" stroke="#7a8a95" stroke-width="0.4"/><polygon points="81.96,34.97 84.59,31.60 68.39,40.36" fill="#8ea1ae" stroke="#8ea1ae" stroke-width="0.4"/><polygon points="126.84,31.45 141.11,33.42 137.61,30.21" fill="#81939e" stroke="#81939e" stroke-width="0.4"/><polygon points="141.11,33.42 142.61,36.93 154.25,38.10" fill="#7b8b96" stroke="#7b8b96" stroke-width="0.4"/><polygon points="188.98,97.08 182.26,105.72 190.49,111.21" fill="#697781" stroke="#697781" stroke-width="0.4"/><polygon points="168.57,51.80 167.50,58.38 178.52,62.41" fill="#6b7a84" stroke="#6b7a84" stroke-width="0.4"/><polygon points="98.02,30.53 100.31,29.02 84.59,31.60" fill="#8c9fab" stroke="#8c9fab" stroke-width="0.4"/><polygon points="45.48,65.90 38.09,78.49 41.73,86.96" fill="#8ea1ae" stroke="#8ea1ae" stroke-width="0.4"/><polygon points="125.06,29.82 126.84,31.45 137.61,30.21" fill="#81939e" stroke="#81939e" stroke-width="0.4"/><polygon points="142.61,36.93 156.45,43.19 154.25,38.10" fill="#7b8b96" stroke="#7b8b96" stroke-width="0.4"/><polygon points="133.00,172.05 129.86,178.70 143.17,175.83" fill="#697781" stroke="#697781" stroke-width="0.4"/><polygon points="98.02,30.53 84.59,31.60 81.96,34.97" fill="#8da0ad" stroke="#8da0ad" stroke-width="0.4"/><polygon points="82.13,170.41 86.60,177.31 100.57,179.47" fill="#697781" stroke="#697781" stroke-width="0.4"/><polygon points="112.00,32.27 115.15,26.82 111.08,26.69" fill="#889aa7" stroke="#889aa7" stroke-width="0.4"/><polygon points="82.13,170.41 67.73,166.06 86.60,177.31" fill="#697781" stroke="#697781" stroke-width="0.4"/><polygon points="112.00,32.27 111.08,26.69 107.07,27.03" fill="#899ba7" stroke="#899ba7" stroke-width="0.4"/><polygon points="112.00,32.27 119.01,27.42 115.15,26.82" fill="#889aa6" stroke="#889aa6" stroke-width="0.4"/><polygon points="182.26,133.71 170.75,141.28 178.18,146.25" fill="#697781" stroke="#697781" stroke-width="0.4"/><polygon points="112.00,32.27 107.07,27.03 103.40,27.83" fill="#8a9ca8" stroke="#8a9ca8" stroke-width="0.4"/><polygon points="81.96,34.97 68.39,40.36 67.55,45.53" fill="#90a3af" stroke="#90a3af" stroke-width="0.4"/><polygon points="41.73,86.96 38.09,78.49 37.41,101.05" fill="#8b9daa" stroke="#8b9daa" stroke-width="0.4"/><polygon points="67.55,45.53 68.39,40.36 55.43,54.77" fill="#90a3b0" stroke="#90a3b0" stroke-width="0.4"/><polygon points="112.00,32.27 122.39,28.44 119.01,27.42" fill="#8899a6" stroke="#8899a6" stroke-width="0.4"/><polygon points="62.81,156.13 50.17,149.61 67.73,166.06" fill="#707f8a" stroke="#707f8a" stroke-width="0.4"/><polygon points="167.50,58.38 177.26,70.14 178.52,62.41" fill="#6b7a84" stroke="#6b7a84" stroke-width="0.4"/><polygon points="148.65,168.67 133.00,172.05 143.17,175.83" fill="#697781" stroke="#697781" stroke-width="0.4"/><polygon points="112.00,32.27 103.40,27.83 100.31,29.02" fill="#8a9ca9" stroke="#8a9ca9" stroke-width="0.4"/><polygon points="182.26,105.72 183.63,120.02 190.49,111.21" fill="#697781" stroke="#697781" stroke-width="0.4"/><polygon points="170.75,141.28 167.34,153.39 178.18,146.25" fill="#697781" stroke="#697781" stroke-width="0.4"/><polygon points="156.45,43.19 155.61,48.36 168.57,51.80" fill="#74838e" stroke="#74838e" stroke-width="0.4"/><polygon points="112.00,32.27 125.06,29.82 122.39,28.44" fill="#8799a5" stroke="#8799a5" stroke-width="0.4"/><polygon points="115.91,173.51 115.33,179.95 129.86,178.70" fill="#697781" stroke="#697781" stroke-width="0.4"/><polygon points="98.56,172.96 100.57,179.47 115.33,179.95" fill="#697781" stroke="#697781" stroke-width="0.4"/><polygon points="96.69,32.24 98.02,30.53 81.96,34.97" fill="#8da0ad" stroke="#8da0ad" stroke-width="0.4"/><polygon points="126.84,31.45 127.61,33.24 141.11,33.42" fill="#81939e" stroke="#81939e" stroke-width="0.4"/><polygon points="127.61,33.24 142.61,36.93 141.11,33.42" fill="#81939e" stroke="#81939e" stroke-width="0.4"/><polygon points="55.43,54.77 45.48,65.90 48.76,73.51" fill="#90a3b0" stroke="#90a3b0" stroke-width="0.4"/><polygon points="112.00,32.27 100.31,29.02 98.02,30.53" fill="#8b9da9" stroke="#8b9da9" stroke-width="0.4"/><polygon points="46.36,137.27 50.17,149.61 62.81,156.13" fill="#788893" stroke="#788893" stroke-width="0.4"/><polygon points="37.41,101.05 35.94,115.26 45.07,123.66" fill="#8698a4" stroke="#8698a4" stroke-width="0.4"/><polygon points="152.72,159.03 148.65,168.67 161.80,163.59" fill="#697781" stroke="#697781" stroke-width="0.4"/><polygon points="184.52,83.21 178.18,91.35 188.98,97.08" fill="#697781" stroke="#697781" stroke-width="0.4"/><polygon points="167.34,153.39 152.72,159.03 161.80,163.59" fill="#697781" stroke="#697781" stroke-width="0.4"/><polygon points="112.00,32.27 126.84,31.45 125.06,29.82" fill="#8799a5" stroke="#8799a5" stroke-width="0.4"/><polygon points="45.07,123.66 35.94,115.26 46.36,137.27" fill="#81929d" stroke="#81929d" stroke-width="0.4"/><polygon points="62.81,156.13 67.73,166.06 82.13,170.41" fill="#6d7c86" stroke="#6d7c86" stroke-width="0.4"/><polygon points="81.39,38.54 81.96,34.97 67.55,45.53" fill="#90a3af" stroke="#90a3af" stroke-width="0.4"/><polygon points="96.69,32.24 81.96,34.97 81.39,38.54" fill="#8ea1ae" stroke="#8ea1ae" stroke-width="0.4"/><polygon points="155.61,48.36 167.50,58.38 168.57,51.80" fill="#74838e" stroke="#74838e" stroke-width="0.4"/><polygon points="98.56,172.96 82.13,170.41 100.57,179.47" fill="#697781" stroke="#697781" stroke-width="0.4"/><polygon points="48.76,73.51 45.48,65.90 41.73,86.96" fill="#8ea1ae" stroke="#8ea1ae" stroke-width="0.4"/><polygon points="112.00,32.27 98.02,30.53 96.69,32.24" fill="#8b9daa" stroke="#8b9daa" stroke-width="0.4"/><polygon points="142.61,36.93 142.04,40.49 156.45,43.19" fill="#7b8c97" stroke="#7b8c97" stroke-width="0.4"/><polygon points="133.00,172.05 115.91,173.51 129.86,178.70" fill="#697781" stroke="#697781" stroke-width="0.4"/><polygon points="112.00,32.27 127.61,33.24 126.84,31.45" fill="#8799a5" stroke="#8799a5" stroke-width="0.4"/><polygon points="67.55,45.53 55.43,54.77 58.22,61.24" fill="#91a4b1" stroke="#91a4b1" stroke-width="0.4"/><polygon points="96.39,34.06 96.69,32.24 81.39,38.54" fill="#8ea1ae" stroke="#8ea1ae" stroke-width="0.4"/><polygon points="178.18,91.35 182.26,105.72 188.98,97.08" fill="#697781" stroke="#697781" stroke-width="0.4"/><polygon points="127.61,33.24 127.31,35.06 142.61,36.93" fill="#82939f" stroke="#82939f" stroke-width="0.4"/><polygon points="115.91,173.51 98.56,172.96 115.33,179.95" fill="#697781" stroke="#697781" stroke-width="0.4"/><polygon points="142.04,40.49 155.61,48.36 156.45,43.19" fill="#7b8c97" stroke="#7b8c97" stroke-width="0.4"/><polygon points="112.00,32.27 96.69,32.24 96.39,34.06" fill="#8b9eaa" stroke="#8b9eaa" stroke-width="0.4"/><polygon points="183.63,120.02 171.90,127.74 182.26,133.71" fill="#697781" stroke="#697781" stroke-width="0.4"/><polygon points="177.26,70.14 171.56,77.47 184.52,83.21" fill="#697781" stroke="#697781" stroke-width="0.4"/><polygon points="127.31,35.06 142.04,40.49 142.61,36.93" fill="#82939f" stroke="#82939f" stroke-width="0.4"/><polygon points="112.00,32.27 127.31,35.06 127.61,33.24" fill="#8799a5" stroke="#8799a5" stroke-width="0.4"/><polygon points="58.22,61.24 55.43,54.77 48.76,73.51" fill="#90a3b0" stroke="#90a3b0" stroke-width="0.4"/><polygon points="81.39,38.54 67.55,45.53 69.75,50.62" fill="#90a3b0" stroke="#90a3b0" stroke-width="0.4"/><polygon points="41.73,86.96 37.41,101.05 46.36,109.29" fill="#8b9daa" stroke="#8b9daa" stroke-width="0.4"/><polygon points="112.00,32.27 96.39,34.06 97.16,35.85" fill="#8b9eaa" stroke="#8b9eaa" stroke-width="0.4"/><polygon points="171.90,127.74 170.75,141.28 182.26,133.71" fill="#697781" stroke="#697781" stroke-width="0.4"/><polygon points="96.39,34.06 81.39,38.54 82.89,42.04" fill="#8fa1ae" stroke="#8fa1ae" stroke-width="0.4"/><polygon points="59.78,144.19 46.36,137.27 62.81,156.13" fill="#788893" stroke="#788893" stroke-width="0.4"/><polygon points="46.36,109.29 37.41,101.05 45.07,123.66" fill="#8698a4" stroke="#8698a4" stroke-width="0.4"/><polygon points="78.81,160.96 62.81,156.13 82.13,170.41" fill="#6d7c86" stroke="#6d7c86" stroke-width="0.4"/><polygon points="112.00,32.27 125.98,36.78 127.31,35.06" fill="#8899a6" stroke="#8899a6" stroke-width="0.4"/><polygon points="167.50,58.38 162.65,64.61 177.26,70.14" fill="#6e7d87" stroke="#6e7d87" stroke-width="0.4"/><polygon points="69.75,50.62 67.55,45.53 58.22,61.24" fill="#91a4b1" stroke="#91a4b1" stroke-width="0.4"/><polygon points="135.33,162.79 133.00,172.05 148.65,168.67" fill="#697781" stroke="#697781" stroke-width="0.4"/><polygon points="45.07,123.66 46.36,137.27 59.78,144.19" fill="#7f909c" stroke="#7f909c" stroke-width="0.4"/><polygon points="97.16,35.85 96.39,34.06 82.89,42.04" fill="#8fa1ae" stroke="#8fa1ae" stroke-width="0.4"/><polygon points="171.56,77.47 178.18,91.35 184.52,83.21" fill="#697781" stroke="#697781" stroke-width="0.4"/><polygon points="78.81,160.96 82.13,170.41 98.56,172.96" fill="#697781" stroke="#697781" stroke-width="0.4"/><polygon points="127.31,35.06 125.98,36.78 142.04,40.49" fill="#8394a0" stroke="#8394a0" stroke-width="0.4"/><polygon points="112.00,32.27 97.16,35.85 98.94,37.49" fill="#8b9eaa" stroke="#8b9eaa" stroke-width="0.4"/><polygon points="82.89,42.04 81.39,38.54 69.75,50.62" fill="#90a3b0" stroke="#90a3b0" stroke-width="0.4"/><polygon points="155.61,48.36 151.80,53.26 167.50,58.38" fill="#768691" stroke="#768691" stroke-width="0.4"/><polygon points="152.72,159.03 135.33,162.79 148.65,168.67" fill="#697781" stroke="#697781" stroke-width="0.4"/><polygon points="112.00,32.27 123.69,38.28 125.98,36.78" fill="#889aa6" stroke="#889aa6" stroke-width="0.4"/><polygon points="142.04,40.49 139.41,43.86 155.61,48.36" fill="#7d8e99" stroke="#7d8e99" stroke-width="0.4"/><polygon points="170.75,141.28 155.23,147.27 167.34,153.39" fill="#697781" stroke="#697781" stroke-width="0.4"/><polygon points="48.76,73.51 41.73,86.96 50.17,94.71" fill="#8ea1ae" stroke="#8ea1ae" stroke-width="0.4"/><polygon points="155.23,147.27 152.72,159.03 167.34,153.39" fill="#697781" stroke="#697781" stroke-width="0.4"/><polygon points="112.00,32.27 98.94,37.49 101.61,38.86" fill="#8b9eaa" stroke="#8b9eaa" stroke-width="0.4"/><polygon points="182.26,105.72 170.75,113.29 183.63,120.02" fill="#697781" stroke="#697781" stroke-width="0.4"/><polygon points="125.98,36.78 139.41,43.86 142.04,40.49" fill="#8394a0" stroke="#8394a0" stroke-width="0.4"/><polygon points="162.65,64.61 171.56,77.47 177.26,70.14" fill="#6e7d87" stroke="#6e7d87" stroke-width="0.4"/><polygon points="112.00,32.27 120.60,39.47 123.69,38.28" fill="#889aa7" stroke="#889aa7" stroke-width="0.4"/><polygon points="59.78,144.19 62.81,156.13 78.81,160.96" fill="#75858f" stroke="#75858f" stroke-width="0.4"/><polygon points="112.00,32.27 101.61,38.86 104.99,39.88" fill="#8b9daa" stroke="#8b9daa" stroke-width="0.4"/><polygon points="116.35,164.41 115.91,173.51 133.00,172.05" fill="#697781" stroke="#697781" stroke-width="0.4"/><polygon points="97.16,35.85 82.89,42.04 86.39,45.25" fill="#8fa1ae" stroke="#8fa1ae" stroke-width="0.4"/><polygon points="97.07,163.79 98.56,172.96 115.91,173.51" fill="#697781" stroke="#697781" stroke-width="0.4"/><polygon points="98.94,37.49 97.16,35.85 86.39,45.25" fill="#8fa1ae" stroke="#8fa1ae" stroke-width="0.4"/><polygon points="50.17,94.71 41.73,86.96 46.36,109.29" fill="#8b9daa" stroke="#8b9daa" stroke-width="0.4"/><polygon points="139.41,43.86 151.80,53.26 155.61,48.36" fill="#7d8e99" stroke="#7d8e99" stroke-width="0.4"/><polygon points="112.00,32.27 116.93,40.27 120.60,39.47" fill="#899ba7" stroke="#899ba7" stroke-width="0.4"/><polygon points="125.98,36.78 123.69,38.28 139.41,43.86" fill="#8496a2" stroke="#8496a2" stroke-width="0.4"/><polygon points="151.80,53.26 162.65,64.61 167.50,58.38" fill="#768691" stroke="#768691" stroke-width="0.4"/><polygon points="112.00,32.27 104.99,39.88 108.85,40.48" fill="#8b9da9" stroke="#8b9da9" stroke-width="0.4"/><polygon points="58.22,61.24 48.76,73.51 56.35,80.49" fill="#90a3b0" stroke="#90a3b0" stroke-width="0.4"/><polygon points="112.00,32.27 112.92,40.61 116.93,40.27" fill="#8a9ca8" stroke="#8a9ca8" stroke-width="0.4"/><polygon points="170.75,113.29 171.90,127.74 183.63,120.02" fill="#697781" stroke="#697781" stroke-width="0.4"/><polygon points="112.00,32.27 108.85,40.48 112.92,40.61" fill="#8a9ca9" stroke="#8a9ca9" stroke-width="0.4"/><polygon points="97.07,163.79 78.81,160.96 98.56,172.96" fill="#697781" stroke="#697781" stroke-width="0.4"/><polygon points="82.89,42.04 69.75,50.62 74.82,55.28" fill="#90a3b0" stroke="#90a3b0" stroke-width="0.4"/><polygon points="69.75,50.62 58.22,61.24 64.67,67.18" fill="#91a4b1" stroke="#91a4b1" stroke-width="0.4"/><polygon points="135.33,162.79 116.35,164.41 133.00,172.05" fill="#697781" stroke="#697781" stroke-width="0.4"/><polygon points="58.76,130.71 45.07,123.66 59.78,144.19" fill="#7f909c" stroke="#7f909c" stroke-width="0.4"/><polygon points="46.36,109.29 45.07,123.66 58.76,130.71" fill="#8596a2" stroke="#8596a2" stroke-width="0.4"/><polygon points="178.18,91.35 167.34,98.49 182.26,105.72" fill="#697781" stroke="#697781" stroke-width="0.4"/><polygon points="123.69,38.28 134.92,46.82 139.41,43.86" fill="#8496a2" stroke="#8496a2" stroke-width="0.4"/><polygon points="86.39,45.25 82.89,42.04 74.82,55.28" fill="#90a3b0" stroke="#90a3b0" stroke-width="0.4"/><polygon points="56.35,80.49 48.76,73.51 50.17,94.71" fill="#8ea1ae" stroke="#8ea1ae" stroke-width="0.4"/><polygon points="101.61,38.86 98.94,37.49 91.63,47.95" fill="#8ea1ae" stroke="#8ea1ae" stroke-width="0.4"/><polygon points="123.69,38.28 120.60,39.47 134.92,46.82" fill="#8697a3" stroke="#8697a3" stroke-width="0.4"/><polygon points="116.35,164.41 97.07,163.79 115.91,173.51" fill="#697781" stroke="#697781" stroke-width="0.4"/><polygon points="139.41,43.86 134.92,46.82 151.80,53.26" fill="#7f909c" stroke="#7f909c" stroke-width="0.4"/><polygon points="98.94,37.49 86.39,45.25 91.63,47.95" fill="#8ea1ae" stroke="#8ea1ae" stroke-width="0.4"/><polygon points="74.82,55.28 69.75,50.62 64.67,67.18" fill="#91a4b1" stroke="#91a4b1" stroke-width="0.4"/><polygon points="64.67,67.18 58.22,61.24 56.35,80.49" fill="#90a3b0" stroke="#90a3b0" stroke-width="0.4"/><polygon points="76.77,149.33 59.78,144.19 78.81,160.96" fill="#75858f" stroke="#75858f" stroke-width="0.4"/><polygon points="171.90,127.74 156.08,133.85 170.75,141.28" fill="#697781" stroke="#697781" stroke-width="0.4"/><polygon points="171.56,77.47 161.80,83.89 178.18,91.35" fill="#6b7983" stroke="#6b7983" stroke-width="0.4"/><polygon points="167.34,98.49 170.75,113.29 182.26,105.72" fill="#697781" stroke="#697781" stroke-width="0.4"/><polygon points="104.99,39.88 101.61,38.86 98.25,49.96" fill="#8da0ad" stroke="#8da0ad" stroke-width="0.4"/><polygon points="136.77,151.26 135.33,162.79 152.72,159.03" fill="#697781" stroke="#697781" stroke-width="0.4"/><polygon points="120.60,39.47 116.93,40.27 128.87,49.16" fill="#8799a5" stroke="#8799a5" stroke-width="0.4"/><polygon points="156.08,133.85 155.23,147.27 170.75,141.28" fill="#697781" stroke="#697781" stroke-width="0.4"/><polygon points="151.80,53.26 145.28,57.55 162.65,64.61" fill="#798995" stroke="#798995" stroke-width="0.4"/><polygon points="76.77,149.33 78.81,160.96 97.07,163.79" fill="#707f89" stroke="#707f89" stroke-width="0.4"/><polygon points="155.23,147.27 136.77,151.26 152.72,159.03" fill="#697781" stroke="#697781" stroke-width="0.4"/><polygon points="162.65,64.61 154.35,70.07 171.56,77.47" fill="#72828c" stroke="#72828c" stroke-width="0.4"/><polygon points="120.60,39.47 128.87,49.16 134.92,46.82" fill="#8697a3" stroke="#8697a3" stroke-width="0.4"/><polygon points="134.92,46.82 145.28,57.55 151.80,53.26" fill="#7f909c" stroke="#7f909c" stroke-width="0.4"/><polygon points="58.76,130.71 59.78,144.19 76.77,149.33" fill="#7c8c98" stroke="#7c8c98" stroke-width="0.4"/><polygon points="50.17,94.71 46.36,109.29 59.78,116.21" fill="#899ca8" stroke="#899ca8" stroke-width="0.4"/><polygon points="108.85,40.48 104.99,39.88 105.82,51.13" fill="#8c9fab" stroke="#8c9fab" stroke-width="0.4"/><polygon points="116.93,40.27 112.92,40.61 121.66,50.71" fill="#899ba7" stroke="#899ba7" stroke-width="0.4"/><polygon points="101.61,38.86 91.63,47.95 98.25,49.96" fill="#8da0ad" stroke="#8da0ad" stroke-width="0.4"/><polygon points="112.92,40.61 108.85,40.48 113.80,51.39" fill="#8b9da9" stroke="#8b9da9" stroke-width="0.4"/><polygon points="59.78,116.21 46.36,109.29 58.76,130.71" fill="#8596a2" stroke="#8596a2" stroke-width="0.4"/><polygon points="86.39,45.25 74.82,55.28 82.42,59.20" fill="#90a3af" stroke="#90a3af" stroke-width="0.4"/><polygon points="161.80,83.89 167.34,98.49 178.18,91.35" fill="#6b7983" stroke="#6b7983" stroke-width="0.4"/><polygon points="91.63,47.95 86.39,45.25 82.42,59.20" fill="#90a3af" stroke="#90a3af" stroke-width="0.4"/><polygon points="145.28,57.55 154.35,70.07 162.65,64.61" fill="#798995" stroke="#798995" stroke-width="0.4"/><polygon points="116.93,40.27 121.66,50.71 128.87,49.16" fill="#8799a5" stroke="#8799a5" stroke-width="0.4"/><polygon points="134.92,46.82 128.87,49.16 145.28,57.55" fill="#82939f" stroke="#82939f" stroke-width="0.4"/><polygon points="116.62,152.99 116.35,164.41 135.33,162.79" fill="#697781" stroke="#697781" stroke-width="0.4"/><polygon points="104.99,39.88 98.25,49.96 105.82,51.13" fill="#8c9fab" stroke="#8c9fab" stroke-width="0.4"/><polygon points="154.35,70.07 161.80,83.89 171.56,77.47" fill="#72828c" stroke="#72828c" stroke-width="0.4"/><polygon points="96.15,152.33 97.07,163.79 116.35,164.41" fill="#6a7882" stroke="#6a7882" stroke-width="0.4"/><polygon points="56.35,80.49 50.17,94.71 62.81,101.23" fill="#8d9fac" stroke="#8d9fac" stroke-width="0.4"/><polygon points="170.75,113.29 155.23,119.28 171.90,127.74" fill="#697781" stroke="#697781" stroke-width="0.4"/><polygon points="74.82,55.28 64.67,67.18 74.35,72.17" fill="#90a3b0" stroke="#90a3b0" stroke-width="0.4"/><polygon points="112.92,40.61 113.80,51.39 121.66,50.71" fill="#899ba7" stroke="#899ba7" stroke-width="0.4"/><polygon points="96.15,152.33 76.77,149.33 97.07,163.79" fill="#707f89" stroke="#707f89" stroke-width="0.4"/><polygon points="108.85,40.48 105.82,51.13 113.80,51.39" fill="#8b9da9" stroke="#8b9da9" stroke-width="0.4"/><polygon points="64.67,67.18 56.35,80.49 67.73,86.36" fill="#8fa2af" stroke="#8fa2af" stroke-width="0.4"/><polygon points="136.77,151.26 116.62,152.99 135.33,162.79" fill="#697781" stroke="#697781" stroke-width="0.4"/><polygon points="62.81,101.23 50.17,94.71 59.78,116.21" fill="#899ca8" stroke="#899ca8" stroke-width="0.4"/><polygon points="155.23,119.28 156.08,133.85 171.90,127.74" fill="#697781" stroke="#697781" stroke-width="0.4"/><polygon points="76.08,135.95 58.76,130.71 76.77,149.33" fill="#7c8c98" stroke="#7c8c98" stroke-width="0.4"/><polygon points="82.42,59.20 74.82,55.28 74.35,72.17" fill="#90a3b0" stroke="#90a3b0" stroke-width="0.4"/><polygon points="128.87,49.16 136.49,60.94 145.28,57.55" fill="#82939f" stroke="#82939f" stroke-width="0.4"/><polygon points="98.25,49.96 91.63,47.95 92.04,62.11" fill="#8ea1ae" stroke="#8ea1ae" stroke-width="0.4"/><polygon points="59.78,116.21 58.76,130.71 76.08,135.95" fill="#82939f" stroke="#82939f" stroke-width="0.4"/><polygon points="116.62,152.99 96.15,152.33 116.35,164.41" fill="#6a7882" stroke="#6a7882" stroke-width="0.4"/><polygon points="128.87,49.16 121.66,50.71 136.49,60.94" fill="#8596a2" stroke="#8596a2" stroke-width="0.4"/><polygon points="145.28,57.55 136.49,60.94 154.35,70.07" fill="#7d8e99" stroke="#7d8e99" stroke-width="0.4"/><polygon points="91.63,47.95 82.42,59.20 92.04,62.11" fill="#8ea1ae" stroke="#8ea1ae" stroke-width="0.4"/><polygon points="137.25,137.92 136.77,151.26 155.23,147.27" fill="#697781" stroke="#697781" stroke-width="0.4"/><polygon points="156.08,133.85 137.25,137.92 155.23,147.27" fill="#697781" stroke="#697781" stroke-width="0.4"/><polygon points="67.73,86.36 56.35,80.49 62.81,101.23" fill="#8d9fac" stroke="#8d9fac" stroke-width="0.4"/><polygon points="167.34,98.49 152.72,104.13 170.75,113.29" fill="#697781" stroke="#697781" stroke-width="0.4"/><polygon points="74.35,72.17 64.67,67.18 67.73,86.36" fill="#8fa2af" stroke="#8fa2af" stroke-width="0.4"/><polygon points="76.08,135.95 76.77,149.33 96.15,152.33" fill="#778792" stroke="#778792" stroke-width="0.4"/><polygon points="154.35,70.07 143.17,74.39 161.80,83.89" fill="#778792" stroke="#778792" stroke-width="0.4"/><polygon points="105.82,51.13 98.25,49.96 103.02,63.81" fill="#8d9fac" stroke="#8d9fac" stroke-width="0.4"/><polygon points="161.80,83.89 148.65,88.97 167.34,98.49" fill="#70808a" stroke="#70808a" stroke-width="0.4"/><polygon points="121.66,50.71 113.80,51.39 126.03,63.21" fill="#8899a6" stroke="#8899a6" stroke-width="0.4"/><polygon points="152.72,104.13 155.23,119.28 170.75,113.29" fill="#697781" stroke="#697781" stroke-width="0.4"/><polygon points="136.49,60.94 143.17,74.39 154.35,70.07" fill="#7d8e99" stroke="#7d8e99" stroke-width="0.4"/><polygon points="121.66,50.71 126.03,63.21 136.49,60.94" fill="#8596a2" stroke="#8596a2" stroke-width="0.4"/><polygon points="113.80,51.39 105.82,51.13 114.61,64.18" fill="#8a9ca9" stroke="#8a9ca9" stroke-width="0.4"/><polygon points="98.25,49.96 92.04,62.11 103.02,63.81" fill="#8d9fac" stroke="#8d9fac" stroke-width="0.4"/><polygon points="62.81,101.23 59.78,116.21 76.77,121.34" fill="#8798a5" stroke="#8798a5" stroke-width="0.4"/><polygon points="82.42,59.20 74.35,72.17 86.60,75.87" fill="#8ea1ae" stroke="#8ea1ae" stroke-width="0.4"/><polygon points="76.77,121.34 59.78,116.21 76.08,135.95" fill="#82939f" stroke="#82939f" stroke-width="0.4"/><polygon points="116.71,139.68 116.62,152.99 136.77,151.26" fill="#6a7882" stroke="#6a7882" stroke-width="0.4"/><polygon points="95.84,139.01 96.15,152.33 116.62,152.99" fill="#71808b" stroke="#71808b" stroke-width="0.4"/><polygon points="92.04,62.11 82.42,59.20 86.60,75.87" fill="#8ea1ae" stroke="#8ea1ae" stroke-width="0.4"/><polygon points="95.84,139.01 76.08,135.95 96.15,152.33" fill="#778792" stroke="#778792" stroke-width="0.4"/><polygon points="148.65,88.97 152.72,104.13 167.34,98.49" fill="#70808a" stroke="#70808a" stroke-width="0.4"/><polygon points="143.17,74.39 148.65,88.97 161.80,83.89" fill="#778792" stroke="#778792" stroke-width="0.4"/><polygon points="113.80,51.39 114.61,64.18 126.03,63.21" fill="#8899a6" stroke="#8899a6" stroke-width="0.4"/><polygon points="105.82,51.13 103.02,63.81 114.61,64.18" fill="#8a9ca9" stroke="#8a9ca9" stroke-width="0.4"/><polygon points="136.49,60.94 126.03,63.21 143.17,74.39" fill="#81929e" stroke="#81929e" stroke-width="0.4"/><polygon points="155.23,119.28 136.77,123.27 156.08,133.85" fill="#697781" stroke="#697781" stroke-width="0.4"/><polygon points="137.25,137.92 116.71,139.68 136.77,151.26" fill="#6a7882" stroke="#6a7882" stroke-width="0.4"/><polygon points="67.73,86.36 62.81,101.23 78.81,106.07" fill="#8a9da9" stroke="#8a9da9" stroke-width="0.4"/><polygon points="74.35,72.17 67.73,86.36 82.13,90.71" fill="#8d9fac" stroke="#8d9fac" stroke-width="0.4"/><polygon points="136.77,123.27 137.25,137.92 156.08,133.85" fill="#697781" stroke="#697781" stroke-width="0.4"/><polygon points="76.77,121.34 76.08,135.95 95.84,139.01" fill="#7d8e99" stroke="#7d8e99" stroke-width="0.4"/><polygon points="116.71,139.68 95.84,139.01 116.62,152.99" fill="#71808b" stroke="#71808b" stroke-width="0.4"/><polygon points="78.81,106.07 62.81,101.23 76.77,121.34" fill="#8798a5" stroke="#8798a5" stroke-width="0.4"/><polygon points="86.60,75.87 74.35,72.17 82.13,90.71" fill="#8d9fac" stroke="#8d9fac" stroke-width="0.4"/><polygon points="126.03,63.21 129.86,77.27 143.17,74.39" fill="#81929e" stroke="#81929e" stroke-width="0.4"/><polygon points="103.02,63.81 92.04,62.11 100.57,78.03" fill="#8c9eab" stroke="#8c9eab" stroke-width="0.4"/><polygon points="126.03,63.21 114.61,64.18 129.86,77.27" fill="#8596a2" stroke="#8596a2" stroke-width="0.4"/><polygon points="82.13,90.71 67.73,86.36 78.81,106.07" fill="#8a9da9" stroke="#8a9da9" stroke-width="0.4"/><polygon points="143.17,74.39 129.86,77.27 148.65,88.97" fill="#7c8d98" stroke="#7c8d98" stroke-width="0.4"/><polygon points="92.04,62.11 86.60,75.87 100.57,78.03" fill="#8c9eab" stroke="#8c9eab" stroke-width="0.4"/><polygon points="152.72,104.13 135.33,107.89 155.23,119.28" fill="#707f8a" stroke="#707f8a" stroke-width="0.4"/><polygon points="114.61,64.18 103.02,63.81 115.33,78.51" fill="#899ba7" stroke="#899ba7" stroke-width="0.4"/><polygon points="148.65,88.97 133.00,92.35 152.72,104.13" fill="#778691" stroke="#778691" stroke-width="0.4"/><polygon points="96.15,124.34 76.77,121.34 95.84,139.01" fill="#7d8e99" stroke="#7d8e99" stroke-width="0.4"/><polygon points="135.33,107.89 136.77,123.27 155.23,119.28" fill="#707f8a" stroke="#707f8a" stroke-width="0.4"/><polygon points="116.62,125.00 116.71,139.68 137.25,137.92" fill="#71808a" stroke="#71808a" stroke-width="0.4"/><polygon points="96.15,124.34 95.84,139.01 116.71,139.68" fill="#788892" stroke="#788892" stroke-width="0.4"/><polygon points="78.81,106.07 76.77,121.34 96.15,124.34" fill="#8394a0" stroke="#8394a0" stroke-width="0.4"/><polygon points="114.61,64.18 115.33,78.51 129.86,77.27" fill="#8596a2" stroke="#8596a2" stroke-width="0.4"/><polygon points="136.77,123.27 116.62,125.00 137.25,137.92" fill="#71808a" stroke="#71808a" stroke-width="0.4"/><polygon points="129.86,77.27 133.00,92.35 148.65,88.97" fill="#7c8d98" stroke="#7c8d98" stroke-width="0.4"/><polygon points="103.02,63.81 100.57,78.03 115.33,78.51" fill="#899ba7" stroke="#899ba7" stroke-width="0.4"/><polygon points="86.60,75.87 82.13,90.71 98.56,93.26" fill="#8a9ca8" stroke="#8a9ca8" stroke-width="0.4"/><polygon points="133.00,92.35 135.33,107.89 152.72,104.13" fill="#778691" stroke="#778691" stroke-width="0.4"/><polygon points="100.57,78.03 86.60,75.87 98.56,93.26" fill="#8a9ca8" stroke="#8a9ca8" stroke-width="0.4"/><polygon points="82.13,90.71 78.81,106.07 97.07,108.89" fill="#8799a5" stroke="#8799a5" stroke-width="0.4"/><polygon points="116.62,125.00 96.15,124.34 116.71,139.68" fill="#788892" stroke="#788892" stroke-width="0.4"/><polygon points="129.86,77.27 115.33,78.51 133.00,92.35" fill="#81929e" stroke="#81929e" stroke-width="0.4"/><polygon points="97.07,108.89 78.81,106.07 96.15,124.34" fill="#8394a0" stroke="#8394a0" stroke-width="0.4"/><polygon points="98.56,93.26 82.13,90.71 97.07,108.89" fill="#8799a5" stroke="#8799a5" stroke-width="0.4"/><polygon points="135.33,107.89 116.35,109.51 136.77,123.27" fill="#778792" stroke="#778792" stroke-width="0.4"/><polygon points="115.33,78.51 100.57,78.03 115.91,93.82" fill="#8698a4" stroke="#8698a4" stroke-width="0.4"/><polygon points="116.35,109.51 116.62,125.00 136.77,123.27" fill="#778792" stroke="#778792" stroke-width="0.4"/><polygon points="97.07,108.89 96.15,124.34 116.62,125.00" fill="#7d8e99" stroke="#7d8e99" stroke-width="0.4"/><polygon points="115.33,78.51 115.91,93.82 133.00,92.35" fill="#81929e" stroke="#81929e" stroke-width="0.4"/><polygon points="133.00,92.35 115.91,93.82 135.33,107.89" fill="#7d8d99" stroke="#7d8d99" stroke-width="0.4"/><polygon points="100.57,78.03 98.56,93.26 115.91,93.82" fill="#8698a4" stroke="#8698a4" stroke-width="0.4"/><polygon points="116.35,109.51 97.07,108.89 116.62,125.00" fill="#7d8e99" stroke="#7d8e99" stroke-width="0.4"/><polygon points="115.91,93.82 116.35,109.51 135.33,107.89" fill="#7d8d99" stroke="#7d8d99" stroke-width="0.4"/><polygon points="98.56,93.26 97.07,108.89 116.35,109.51" fill="#82939f" stroke="#82939f" stroke-width="0.4"/><polygon points="115.91,93.82 98.56,93.26 116.35,109.51" fill="#82939f" stroke="#82939f" stroke-width="0.4"/></svg>